<svg width="24" height="24" viewBox="0 0 24 24" fill="none" xmlns="http://www.w3.org/2000/svg">
<g clip-path="url(#clip0_445_8855)">
<path d="M17.5002 2C18.4171 2.00007 19.3121 2.2802 20.0653 2.80291C20.8186 3.32561 21.3942 4.06594 21.7152 4.9248C22.0361 5.78366 22.0871 6.72006 21.8612 7.60867C21.6353 8.49727 21.1434 9.29567 20.4512 9.897C20.8062 10.864 21.0002 11.91 21.0002 13C20.9995 14.3149 20.7106 15.6137 20.154 16.8049C19.5974 17.9962 18.7865 19.051 17.7784 19.8952C16.7703 20.7394 15.5894 21.3524 14.3189 21.6912C13.0484 22.0299 11.7191 22.0862 10.4245 21.856C9.12996 21.6258 7.90154 21.1147 6.82571 20.3587C5.74988 19.6027 4.85276 18.6202 4.19748 17.4802C3.54219 16.3402 3.14465 15.0705 3.03283 13.7604C2.921 12.4503 3.09761 11.1315 3.55022 9.897C3.06031 9.47126 2.66829 8.94458 2.40106 8.3531C2.13383 7.76161 1.99772 7.11932 2.00205 6.47028C2.00639 5.82124 2.15108 5.18082 2.42618 4.59296C2.70129 4.0051 3.10031 3.4837 3.59587 3.06455C4.09143 2.64539 4.67179 2.3384 5.29715 2.16463C5.92251 1.99085 6.57805 1.95441 7.21882 2.05781C7.85958 2.16121 8.47039 2.40199 9.00935 2.76364C9.54831 3.12529 10.0027 3.59925 10.3412 4.153C11.4384 3.94827 12.564 3.94827 13.6612 4.153C14.0628 3.49502 14.6268 2.95138 15.2991 2.57433C15.9714 2.19729 16.7294 1.99951 17.5002 2ZM10.0002 13H8.00022C8.00021 14.0436 8.40801 15.0458 9.13662 15.7929C9.86524 16.54 10.857 16.9727 11.9002 16.9988C12.9434 17.0249 13.9555 16.6423 14.7206 15.9326C15.4857 15.2228 15.9431 14.2423 15.9952 13.2L16.0002 13H14.0002C14.0025 13.519 13.803 14.0185 13.4438 14.3932C13.0846 14.7678 12.5939 14.9881 12.0753 15.0075C11.5567 15.027 11.0508 14.8441 10.6645 14.4975C10.2782 14.1509 10.0418 13.6677 10.0052 13.15L10.0002 13Z" fill="#222222"/>
</g>
<defs>
<clipPath id="clip0_445_8855">
<rect width="24" height="24" fill="white"/>
</clipPath>
</defs>
</svg>
