<svg width="24" height="24" viewBox="0 0 24 24" fill="none" xmlns="http://www.w3.org/2000/svg">
<g clip-path="url(#clip0_445_8877)">
<path d="M5.33356 4.54499C6.36029 3.62527 7.56625 2.92799 8.87556 2.49699C9.24994 2.96602 9.72522 3.34462 10.2661 3.60466C10.8069 3.8647 11.3994 3.99949 11.9996 3.99899C12.5997 3.99949 13.1922 3.8647 13.733 3.60466C14.2739 3.34462 14.7492 2.96602 15.1236 2.49699C16.4329 2.92799 17.6388 3.62527 18.6656 4.54499C18.4471 5.10344 18.3572 5.70393 18.4025 6.30188C18.4479 6.89984 18.6273 7.47989 18.9276 7.99899C19.2272 8.51908 19.6402 8.96494 20.1358 9.30342C20.6315 9.64189 21.1971 9.86426 21.7906 9.95399C22.0711 11.3029 22.0711 12.6951 21.7906 14.044C20.6306 14.222 19.5606 14.904 18.9276 15.999C18.6272 16.5182 18.4476 17.0985 18.4023 17.6966C18.3569 18.2947 18.4469 18.8954 18.6656 19.454C17.6387 20.3734 16.4328 21.0703 15.1236 21.501C14.7491 21.0322 14.2738 20.6537 13.7329 20.3939C13.1921 20.134 12.5996 19.9994 11.9996 20C11.3994 19.9995 10.8069 20.1343 10.2661 20.3943C9.72522 20.6544 9.24994 21.033 8.87556 21.502C7.56633 21.0713 6.36038 20.3744 5.33356 19.455C5.55221 18.8964 5.6422 18.2957 5.59684 17.6976C5.55148 17.0995 5.37194 16.5192 5.07156 16C4.77185 15.4801 4.35881 15.0344 3.86314 14.6961C3.36748 14.3578 2.80194 14.1356 2.20856 14.046C1.92788 12.6968 1.92788 11.3042 2.20856 9.95499C2.80203 9.86526 3.36763 9.64289 3.8633 9.30441C4.35897 8.96594 4.77196 8.52009 5.07156 7.99999C5.37179 7.48089 5.55124 6.90084 5.5966 6.30288C5.64196 5.70493 5.55205 5.10444 5.33356 4.54599V4.54499ZM13.4996 14.597C13.8435 14.4014 14.1454 14.1398 14.3878 13.8271C14.6302 13.5144 14.8083 13.1569 14.912 12.7751C15.0157 12.3933 15.0428 11.9947 14.9918 11.6024C14.9408 11.21 14.8127 10.8316 14.6149 10.489C14.417 10.1464 14.1534 9.84626 13.8391 9.60594C13.5248 9.36561 13.1661 9.18982 12.7836 9.0887C12.4011 8.98757 12.0024 8.9631 11.6104 9.0167C11.2184 9.0703 10.8409 9.2009 10.4996 9.40099C9.81614 9.80165 9.31894 10.4564 9.11645 11.2222C8.91396 11.9881 9.02263 12.803 9.41874 13.4891C9.81485 14.1751 10.4662 14.6767 11.2308 14.8842C11.9953 15.0918 12.8109 14.9885 13.4996 14.597Z" fill="#222222"/>
</g>
<defs>
<clipPath id="clip0_445_8877">
<rect width="24" height="24" fill="white"/>
</clipPath>
</defs>
</svg>
